<?xml version="1.0" encoding="UTF-8" standalone="no"?>
<!DOCTYPE svg PUBLIC "-//W3C//DTD SVG 1.1//EN" "http://www.w3.org/Graphics/SVG/1.1/DTD/svg11.dtd">
<svg width="100%" height="100%" viewBox="0 0 1808 1808" version="1.1" xmlns="http://www.w3.org/2000/svg" xmlns:xlink="http://www.w3.org/1999/xlink" xml:space="preserve" xmlns:serif="http://www.serif.com/" style="fill-rule:evenodd;clip-rule:evenodd;stroke-linejoin:round;stroke-miterlimit:2;">
    <g transform="matrix(1,0,0,1,-600.794,-295.276)">
        <g>
            <g transform="matrix(1,0,0,1,-5.20817,-7.23539)">
                <path d="M2385.07,768.95L2385.07,1644.04C2385.07,1885.52 2189.01,2081.58 1947.53,2081.58L1072.44,2081.58C830.955,2081.58 634.899,1885.52 634.899,1644.04L634.899,768.95C634.899,527.464 830.955,331.407 1072.44,331.407L1947.53,331.407C2189.01,331.407 2385.07,527.464 2385.07,768.95Z" style="fill:white;"/>
            </g>
            <g transform="matrix(1,0,0,1,14,0)">
                <clipPath id="_clip1">
                    <path d="M1478.19,2012.59L828.346,2012.59L828.346,385.925L1448.7,385.925C1588.75,385.925 1695.62,393.693 1769.33,409.227C1872.51,430.679 1960.55,469.515 2033.44,525.734C2128.44,598.228 2199.48,690.879 2246.57,803.688C2293.66,916.496 2317.21,1045.39 2317.21,1190.38C2317.21,1313.92 2301.24,1423.4 2269.3,1518.82C2237.36,1614.25 2196.41,1693.21 2146.45,1755.72C2096.5,1818.23 2041.83,1867.42 1982.46,1903.3C1923.09,1939.17 1851.43,1966.36 1767.48,1984.85C1683.54,2003.34 1587.11,2012.59 1478.19,2012.59ZM1445.02,577.885L1066.66,577.885L1066.66,1081.64L1911.82,1081.64L1911.82,1273.6L1066.66,1273.6L1066.66,1820.63L1451.16,1820.63C1569.91,1820.63 1663.07,1810.64 1730.63,1790.67C1798.19,1770.7 1852.04,1742.59 1892.17,1706.34C1948.68,1655.3 1992.7,1586.69 2024.23,1500.51C2055.76,1414.33 2071.52,1309.85 2071.52,1187.05C2071.52,1016.92 2040.61,886.167 1978.77,794.811C1916.94,703.454 1841.8,642.242 1753.36,611.173C1689.48,588.981 1586.7,577.885 1445.02,577.885Z"/>
                </clipPath>
                <g clip-path="url(#_clip1)">
                    <rect x="828.346" y="385.925" width="1488.86" height="1626.66" style="fill:url(#_Linear2);"/>
                </g>
                <clipPath id="_clip3">
                    <path d="M1478.19,2012.59L828.346,2012.59L828.346,385.925L1448.7,385.925C1588.75,385.925 1695.62,393.693 1769.33,409.227C1872.51,430.679 1960.55,469.515 2033.44,525.734C2128.44,598.228 2199.48,690.879 2246.57,803.688C2293.66,916.496 2317.21,1045.39 2317.21,1190.38C2317.21,1313.92 2301.24,1423.4 2269.3,1518.82C2237.36,1614.25 2196.41,1693.21 2146.45,1755.72C2096.5,1818.23 2041.83,1867.42 1982.46,1903.3C1923.09,1939.17 1851.43,1966.36 1767.48,1984.85C1683.54,2003.34 1587.11,2012.59 1478.19,2012.59ZM1445.02,577.885L1066.66,577.885L1066.66,1081.64L1911.82,1081.64L1911.82,1273.6L1066.66,1273.6L1066.66,1820.63L1451.16,1820.63C1569.91,1820.63 1663.07,1810.64 1730.63,1790.67C1798.19,1770.7 1852.04,1742.59 1892.17,1706.34C1948.68,1655.3 1992.7,1586.69 2024.23,1500.51C2055.76,1414.33 2071.52,1309.85 2071.52,1187.05C2071.52,1016.92 2040.61,886.167 1978.77,794.811C1916.94,703.454 1841.8,642.242 1753.36,611.173C1689.48,588.981 1586.7,577.885 1445.02,577.885Z"/>
                </clipPath>
                <g clip-path="url(#_clip3)">
                    <clipPath id="_clip4">
                        <rect x="501.582" y="1332.83" width="2160.97" height="741.51"/>
                    </clipPath>
                    <g clip-path="url(#_clip4)">
                        <rect x="828.346" y="385.925" width="1488.86" height="1626.66" style="fill:url(#_Linear5);"/>
                    </g>
                </g>
            </g>
            <g transform="matrix(1.32834,0,0,1.91343,-197.264,-269.713)">
                <rect x="600.794" y="295.276" width="1361.07" height="944.882" style="fill:none;"/>
            </g>
        </g>
    </g>
    <defs>
        <linearGradient id="_Linear2" x1="0" y1="0" x2="1" y2="0" gradientUnits="userSpaceOnUse" gradientTransform="matrix(1488.86,0,0,1626.66,828.346,1199.26)"><stop offset="0" style="stop-color:rgb(0,55,193);stop-opacity:1"/><stop offset="0.45" style="stop-color:rgb(36,46,170);stop-opacity:1"/><stop offset="0.6" style="stop-color:rgb(122,24,116);stop-opacity:1"/><stop offset="0.74" style="stop-color:rgb(214,0,58);stop-opacity:1"/><stop offset="0.78" style="stop-color:rgb(247,11,94);stop-opacity:1"/><stop offset="0.84" style="stop-color:rgb(255,14,103);stop-opacity:1"/><stop offset="1" style="stop-color:rgb(255,14,103);stop-opacity:1"/></linearGradient>
        <linearGradient id="_Linear5" x1="0" y1="0" x2="1" y2="0" gradientUnits="userSpaceOnUse" gradientTransform="matrix(1488.86,0,0,1626.66,828.346,1199.26)"><stop offset="0" style="stop-color:rgb(0,55,193);stop-opacity:1"/><stop offset="0.12" style="stop-color:rgb(10,53,189);stop-opacity:1"/><stop offset="0.15" style="stop-color:rgb(38,48,177);stop-opacity:1"/><stop offset="0.17" style="stop-color:rgb(74,42,163);stop-opacity:1"/><stop offset="0.26" style="stop-color:rgb(247,11,94);stop-opacity:1"/><stop offset="1" style="stop-color:rgb(255,14,103);stop-opacity:1"/></linearGradient>
    </defs>
</svg>
